<svg width="52" height="52" viewBox="0 0 52 52" fill="none" xmlns="http://www.w3.org/2000/svg">
<g opacity="0.9">
<rect width="52" height="52" rx="16" fill="#EFC81A"/>
</g>
<path d="M36.1104 38.9993L25.9993 31.7771L15.8882 38.9993V15.8882C15.8882 15.122 16.1925 14.3872 16.7343 13.8454C17.2761 13.3036 18.0109 12.9993 18.7771 12.9993H33.2215C33.9877 12.9993 34.7225 13.3036 35.2643 13.8454C35.806 14.3872 36.1104 15.122 36.1104 15.8882V38.9993Z" stroke="#EFC81A" stroke-width="2" stroke-linecap="round" stroke-linejoin="round"/>
<path d="M36.1104 38.9993L25.9993 31.7771L15.8882 38.9993V15.8882C15.8882 15.122 16.1925 14.3872 16.7343 13.8454C17.2761 13.3036 18.0109 12.9993 18.7771 12.9993H33.2215C33.9877 12.9993 34.7225 13.3036 35.2643 13.8454C35.806 14.3872 36.1104 15.122 36.1104 15.8882V38.9993Z" stroke="#E9E9E8" stroke-width="2" stroke-linecap="round" stroke-linejoin="round"/>
</svg>
